<svg width="75" height="75" viewBox="0 0 75 75" fill="none" xmlns="http://www.w3.org/2000/svg">
<mask id="mask0_838_803" style="mask-type:alpha" maskUnits="userSpaceOnUse" x="0" y="0" width="75" height="75">
<path d="M0 28.5679C0 27.2634 0 26.6112 0.179795 26.0192C0.338966 25.495 0.59992 25.0074 0.947726 24.5843C1.3406 24.1063 1.88329 23.7445 2.96867 23.0209L33.802 2.46534C35.1385 1.57434 35.8067 1.12885 36.529 0.955762C37.1673 0.802804 37.8327 0.802804 38.471 0.955762C39.1933 1.12885 39.8615 1.57434 41.198 2.46533L72.0313 23.0209C73.1167 23.7445 73.6594 24.1063 74.0523 24.5843C74.4001 25.0074 74.661 25.495 74.8202 26.0192C75 26.6112 75 27.2634 75 28.5679V68.3333C75 70.6669 75 71.8337 74.5459 72.725C74.1464 73.509 73.509 74.1464 72.725 74.5459C71.8337 75 70.6669 75 68.3333 75H6.66667C4.33311 75 3.16634 75 2.27504 74.5459C1.49103 74.1464 0.853612 73.509 0.45414 72.725C0 71.8337 0 70.6669 0 68.3333V28.5679Z" fill="black"/>
</mask>
<g mask="url(#mask0_838_803)">
<g filter="url(#filter0_di_838_803)">
<path d="M0 25L-2.18557e-06 75L25.4827 55.2715C27.8013 53.4764 28.9606 52.5789 29.3778 51.4865C29.7434 50.5292 29.7434 49.4708 29.3778 48.5135C28.9606 47.4211 27.8013 46.5236 25.4827 44.7285L0 25Z" fill="#580A0A"/>
</g>
<path fill-rule="evenodd" clip-rule="evenodd" d="M-0.519531 23.9375L-0.519534 76.0613L28.3562 53.7059C30.7801 51.8293 30.7801 48.1695 28.3562 46.2929L-0.519531 23.9375ZM0.00130208 24.9994L28.0373 46.7047C30.1919 48.3728 30.1919 51.626 28.0373 53.2941L0.00129989 74.9994L0.00130208 24.9994Z" fill="#B49880"/>
<path fill-rule="evenodd" clip-rule="evenodd" d="M75.4844 23.9375L75.4844 76.0613L46.6087 53.7059C44.1847 51.8293 44.1847 48.1695 46.6087 46.2929L75.4844 23.9375ZM74.9635 24.9994L46.9275 46.7047C44.7729 48.3728 44.7729 51.626 46.9275 53.2941L74.9635 74.9994L74.9635 24.9994Z" fill="#B49880"/>
<g filter="url(#filter1_di_838_803)">
<path d="M75 25L75 75L49.5173 55.2715C47.1987 53.4764 46.0394 52.5789 45.6222 51.4865C45.2566 50.5292 45.2566 49.4708 45.6222 48.5135C46.0394 47.4211 47.1987 46.5236 49.5173 44.7285L75 25Z" fill="#580A0A"/>
</g>
<g style="mix-blend-mode:multiply" opacity="0.4">
<g filter="url(#filter2_f_838_803)">
<path d="M1.5625 74.999H73.4375L41.9558 46.7111C40.3807 45.2958 39.5931 44.5881 38.7027 44.3197C37.9183 44.0832 37.0817 44.0832 36.2973 44.3197C35.4069 44.5881 34.6193 45.2958 33.0442 46.7111L1.5625 74.999Z" fill="#B49880"/>
</g>
<g filter="url(#filter3_f_838_803)">
<path d="M5.73047 74.999H69.2721L42.4639 45.1144C40.7459 43.1992 39.8869 42.2417 38.8745 41.8883C37.9853 41.5779 37.0173 41.5779 36.1281 41.8883C35.1157 42.2417 34.2567 43.1992 32.5388 45.1144L5.73047 74.999Z" fill="#B49880"/>
</g>
<g filter="url(#filter4_f_838_803)">
<path d="M1.5625 74.999H73.4375L42.3759 41.6866C40.6811 39.8689 39.8336 38.9601 38.8428 38.6228C37.9722 38.3264 37.0278 38.3264 36.1572 38.6228C35.1663 38.9601 34.3189 39.8689 32.6241 41.6866L1.5625 74.999Z" fill="#B49880"/>
</g>
</g>
<g filter="url(#filter5_i_838_803)">
<path d="M0 75H75L41.8502 46.4542C40.3068 45.1252 39.5351 44.4606 38.6689 44.2075C37.9056 43.9844 37.0944 43.9844 36.3311 44.2075C35.4649 44.4606 34.6932 45.1252 33.1498 46.4542L0 75Z" fill="#580A0A"/>
</g>
<path d="M0.78125 73.9577L33.0855 46.2356C34.652 44.8913 35.4353 44.2191 36.3138 43.9633C37.088 43.7379 37.9105 43.7384 38.6845 43.9647C39.5627 44.2215 40.3452 44.8945 41.9102 46.2406L74.7396 74.4785" stroke="#B49880" stroke-width="0.520833"/>
<g filter="url(#filter6_f_838_803)">
<path d="M0 34.6357L0 75.0003H75V34.6357" stroke="#580A0A" stroke-width="8.33333"/>
</g>
<path d="M0 27.083V68.333C0 70.6666 0 71.8333 0.45414 72.7246C0.853612 73.5086 1.49103 74.1461 2.27504 74.5455C3.16634 74.9997 4.33311 74.9997 6.66667 74.9997H68.3333C70.6669 74.9997 71.8337 74.9997 72.725 74.5455C73.509 74.1461 74.1464 73.5086 74.5459 72.7246C75 71.8333 75 70.6666 75 68.333V27.083" stroke="#580A0A" stroke-width="1.04167" stroke-linecap="round"/>
</g>
<defs>
<filter id="filter0_di_838_803" x="-1.04167" y="21.875" width="40.069" height="60.4167" filterUnits="userSpaceOnUse" color-interpolation-filters="sRGB">
<feFlood flood-opacity="0" result="BackgroundImageFix"/>
<feColorMatrix in="SourceAlpha" type="matrix" values="0 0 0 0 0 0 0 0 0 0 0 0 0 0 0 0 0 0 127 0" result="hardAlpha"/>
<feOffset dx="4.16667" dy="2.08333"/>
<feGaussianBlur stdDeviation="2.60417"/>
<feComposite in2="hardAlpha" operator="out"/>
<feColorMatrix type="matrix" values="0 0 0 0 0 0 0 0 0 0 0 0 0 0 0 0 0 0 0.1 0"/>
<feBlend mode="normal" in2="BackgroundImageFix" result="effect1_dropShadow_838_803"/>
<feBlend mode="normal" in="SourceGraphic" in2="effect1_dropShadow_838_803" result="shape"/>
<feColorMatrix in="SourceAlpha" type="matrix" values="0 0 0 0 0 0 0 0 0 0 0 0 0 0 0 0 0 0 127 0" result="hardAlpha"/>
<feOffset dy="0.520833"/>
<feComposite in2="hardAlpha" operator="arithmetic" k2="-1" k3="1"/>
<feColorMatrix type="matrix" values="0 0 0 0 1 0 0 0 0 1 0 0 0 0 1 0 0 0 0.6 0"/>
<feBlend mode="normal" in2="shape" result="effect2_innerShadow_838_803"/>
</filter>
<filter id="filter1_di_838_803" x="35.9727" y="21.875" width="40.069" height="60.4167" filterUnits="userSpaceOnUse" color-interpolation-filters="sRGB">
<feFlood flood-opacity="0" result="BackgroundImageFix"/>
<feColorMatrix in="SourceAlpha" type="matrix" values="0 0 0 0 0 0 0 0 0 0 0 0 0 0 0 0 0 0 127 0" result="hardAlpha"/>
<feOffset dx="-4.16667" dy="2.08333"/>
<feGaussianBlur stdDeviation="2.60417"/>
<feComposite in2="hardAlpha" operator="out"/>
<feColorMatrix type="matrix" values="0 0 0 0 0 0 0 0 0 0 0 0 0 0 0 0 0 0 0.1 0"/>
<feBlend mode="normal" in2="BackgroundImageFix" result="effect1_dropShadow_838_803"/>
<feBlend mode="normal" in="SourceGraphic" in2="effect1_dropShadow_838_803" result="shape"/>
<feColorMatrix in="SourceAlpha" type="matrix" values="0 0 0 0 0 0 0 0 0 0 0 0 0 0 0 0 0 0 127 0" result="hardAlpha"/>
<feOffset dy="0.520833"/>
<feComposite in2="hardAlpha" operator="arithmetic" k2="-1" k3="1"/>
<feColorMatrix type="matrix" values="0 0 0 0 1 0 0 0 0 1 0 0 0 0 1 0 0 0 0.6 0"/>
<feBlend mode="normal" in2="shape" result="effect2_innerShadow_838_803"/>
</filter>
<filter id="filter2_f_838_803" x="-0.520833" y="42.0592" width="76.0417" height="35.0231" filterUnits="userSpaceOnUse" color-interpolation-filters="sRGB">
<feFlood flood-opacity="0" result="BackgroundImageFix"/>
<feBlend mode="normal" in="SourceGraphic" in2="BackgroundImageFix" result="shape"/>
<feGaussianBlur stdDeviation="1.04167" result="effect1_foregroundBlur_838_803"/>
</filter>
<filter id="filter3_f_838_803" x="-0.519531" y="35.4053" width="76.043" height="45.8438" filterUnits="userSpaceOnUse" color-interpolation-filters="sRGB">
<feFlood flood-opacity="0" result="BackgroundImageFix"/>
<feBlend mode="normal" in="SourceGraphic" in2="BackgroundImageFix" result="shape"/>
<feGaussianBlur stdDeviation="3.125" result="effect1_foregroundBlur_838_803"/>
</filter>
<filter id="filter4_f_838_803" x="-10.9375" y="25.9004" width="96.875" height="61.5986" filterUnits="userSpaceOnUse" color-interpolation-filters="sRGB">
<feFlood flood-opacity="0" result="BackgroundImageFix"/>
<feBlend mode="normal" in="SourceGraphic" in2="BackgroundImageFix" result="shape"/>
<feGaussianBlur stdDeviation="6.25" result="effect1_foregroundBlur_838_803"/>
</filter>
<filter id="filter5_i_838_803" x="0" y="44.04" width="75" height="30.96" filterUnits="userSpaceOnUse" color-interpolation-filters="sRGB">
<feFlood flood-opacity="0" result="BackgroundImageFix"/>
<feBlend mode="normal" in="SourceGraphic" in2="BackgroundImageFix" result="shape"/>
<feColorMatrix in="SourceAlpha" type="matrix" values="0 0 0 0 0 0 0 0 0 0 0 0 0 0 0 0 0 0 127 0" result="hardAlpha"/>
<feOffset dy="0.520833"/>
<feComposite in2="hardAlpha" operator="arithmetic" k2="-1" k3="1"/>
<feColorMatrix type="matrix" values="0 0 0 0 1 0 0 0 0 1 0 0 0 0 1 0 0 0 0.6 0"/>
<feBlend mode="normal" in2="shape" result="effect1_innerShadow_838_803"/>
</filter>
<filter id="filter6_f_838_803" x="-8.33464" y="30.4691" width="91.6693" height="52.8646" filterUnits="userSpaceOnUse" color-interpolation-filters="sRGB">
<feFlood flood-opacity="0" result="BackgroundImageFix"/>
<feBlend mode="normal" in="SourceGraphic" in2="BackgroundImageFix" result="shape"/>
<feGaussianBlur stdDeviation="2.08333" result="effect1_foregroundBlur_838_803"/>
</filter>
</defs>
</svg>
